<?xml version="1.0" encoding="UTF-8"?>
<svg id="Calque_1" data-name="Calque 1" xmlns="http://www.w3.org/2000/svg" viewBox="70 220 715 160">
  <defs>
    <style>
      .cls-1 {
        opacity: .97;
      }

      .cls-2 {
        fill: #f1f2f1;
        stroke-width: 0px;
      }
    </style>
  </defs>
  <g>
    <path class="cls-2" d="m106.12,285.2h-30.12l12.33-45.4c1.82-6.72,7.92-11.39,14.88-11.39h30.12l-12.33,45.4c-1.82,6.72-7.92,11.39-14.88,11.39Z"/>
    <path class="cls-2" d="m228.12,228.43l-14.42,53.7c-4.21,15.68-18.43,26.57-34.65,26.57h-14.4l9.95-37.06,5.77,15.26,4.97-14.24c1.64.6,3.25,1.2,4.87,1.8.6,1.68,2.23,2.89,4.11,2.89.78,0,1.52-.2,2.15-.56.32.12.64.22.94.34,1.36.5,2.73,1,4.09,1.5-.16.44-.24.92-.24,1.42,0,2.41,1.95,4.39,4.37,4.39s4.39-1.95,4.39-4.39-1.95-4.37-4.39-4.37c-1.12,0-2.13.42-2.89,1.12-1.34-1.28-2.69-2.57-4.03-3.85-.02-2.39-1.97-4.35-4.39-4.35h-.18c-1.26-1.2-2.49-2.37-3.71-3.61-.78-.8-1.04-1.88-.66-2.91,1.32-3.61,2.69-7.2,4.07-10.79,1.08-2.83,2.15-5.69,3.21-8.52.08-.22.1-.44.12-.68,0-.1-.06-.26-.14-.28-.08-.02-.22.06-.3.12-.48.48-.96.96-1.44,1.44-4.77,4.89-9.54,9.79-14.28,14.7-.72-.76-1.46-1.52-2.19-2.27l6.26-23.34c.64-2.37,2.79-4.01,5.25-4.01h37.8Z"/>
    <path class="cls-2" d="m163.63,240.36s-.14.18-.14.28c.02.22.04.46.14.66,1.06,2.85,2.13,5.69,3.21,8.52,1.38,3.59,2.75,7.18,4.07,10.77.38,1.04.14,2.13-.66,2.93-1.78,1.8-3.65,3.51-5.49,5.25-3.09,2.97-6.2,5.92-9.3,8.9-.18.18-.32.42-.42.64-.08.2.04.3.26.26.16-.04.3-.08.44-.14,2.51-.92,5.01-1.84,7.5-2.77,1.56-.58,3.11-1.16,4.69-1.74l-25.26,93.3-31.82-37.34,27.57-101.8h41.91l-6.2,22.9c-2.93-3.01-5.86-6.04-8.82-9.06-.46-.48-.94-.96-1.42-1.44-.08-.08-.22-.16-.3-.12h.02Z"/>
  </g>
  <g>
    <g class="cls-1">
      <path class="cls-2" d="m256.33,305.1v-72.67h29.9c6.44,0,11.97,1.04,16.58,3.05,4.6,2.04,8.13,5.02,10.66,8.89,2.49,3.88,3.74,8.51,3.74,13.91s-1.25,9.9-3.74,13.74c-2.49,3.84-6.06,6.82-10.66,8.93s-10.1,3.18-16.58,3.18h-22.32l5.92-6.23v27.2s-13.5,0-13.5,0Zm13.5-25.75l-5.92-6.64h21.7c5.95,0,10.42-1.28,13.43-3.81,3.01-2.53,4.5-6.06,4.5-10.62s-1.49-8.1-4.5-10.66c-3.01-2.56-7.51-3.81-13.43-3.81h-21.7l5.92-6.64v42.18Z"/>
      <path class="cls-2" d="m361.7,305.1v-77.03h12.87v36.65l-2.7-4.67c1.87-3.53,4.64-6.26,8.37-8.2,3.74-1.94,7.96-2.91,12.84-2.91,4.5,0,8.48.87,11.9,2.6,3.43,1.73,6.16,4.39,8.2,7.99,2.04,3.6,3.05,8.2,3.05,13.81v31.77h-12.98v-30.11c0-4.91-1.14-8.58-3.43-11-2.28-2.42-5.54-3.63-9.76-3.63-3.05,0-5.74.62-8.1,1.87-2.35,1.25-4.19,3.11-5.47,5.54-1.28,2.46-1.9,5.57-1.9,9.31v28.03h-12.91Z"/>
      <path class="cls-2" d="m463.96,305.1v-77.03h12.87v77.03h-12.87Z"/>
      <path class="cls-2" d="m551.17,305.83c-6.16,0-11.52-1.21-16.16-3.67-4.64-2.46-8.17-5.81-10.69-10.07-2.53-4.26-3.81-9.14-3.81-14.71s1.25-10.42,3.7-14.71c2.46-4.26,5.85-7.61,10.17-10.07,4.33-2.46,9.24-3.67,14.81-3.67s10.21,1.18,14.43,3.6c4.22,2.39,7.54,5.71,9.97,10,2.42,4.29,3.63,9.38,3.63,15.26,0,.48,0,1.07-.03,1.8,0,.73-.1,1.38-.14,1.94h-46.2v-8.62h39.35l-5.19,2.7c.07-3.11-.59-5.92-1.94-8.37-1.35-2.46-3.18-4.36-5.54-5.71-2.35-1.35-5.12-2.01-8.31-2.01s-5.92.69-8.37,2.01c-2.46,1.35-4.33,3.29-5.64,5.78-1.32,2.49-1.97,5.36-1.97,8.62v2.08c0,3.32.73,6.26,2.25,8.82,1.49,2.56,3.6,4.53,6.37,5.95,2.77,1.42,5.99,2.15,9.65,2.15,3.11,0,5.92-.52,8.41-1.56,2.49-1.04,4.71-2.56,6.64-4.57l7.06,8.1c-2.56,2.91-5.74,5.12-9.52,6.64-3.77,1.52-8.06,2.28-12.91,2.28h-.03Z"/>
      <path class="cls-2" d="m646.26,305.83c-5.81,0-10.97-1.21-15.5-3.67-4.53-2.46-8.1-5.81-10.66-10.07-2.56-4.26-3.84-9.14-3.84-14.71s1.28-10.52,3.84-14.74c2.56-4.22,6.09-7.58,10.66-10.04,4.53-2.46,9.69-3.67,15.5-3.67,5.33,0,10.07,1.11,14.22,3.32s7.27,5.43,9.34,9.65l-9.86,5.81c-1.66-2.56-3.67-4.46-6.06-5.78-2.39-1.28-4.95-1.9-7.72-1.9-3.18,0-6.06.73-8.62,2.15s-4.57,3.43-6.02,6.02c-1.45,2.6-2.18,5.68-2.18,9.21s.73,6.61,2.18,9.24c1.45,2.63,3.46,4.67,6.02,6.06,2.56,1.42,5.43,2.15,8.62,2.15,2.77,0,5.33-.62,7.72-1.9,2.39-1.28,4.43-3.22,6.06-5.88l9.86,5.81c-2.08,4.15-5.19,7.37-9.34,9.62-4.15,2.25-8.89,3.36-14.22,3.36v-.03Z"/>
      <path class="cls-2" d="m711.36,305.1v-77.03h12.87v36.65l-2.7-4.67c1.87-3.53,4.64-6.26,8.37-8.2,3.74-1.94,7.96-2.91,12.84-2.91,4.5,0,8.48.87,11.9,2.6,3.43,1.73,6.16,4.39,8.2,7.99s3.05,8.2,3.05,13.81v31.77h-12.98v-30.11c0-4.91-1.14-8.58-3.43-11-2.28-2.42-5.54-3.63-9.76-3.63-3.05,0-5.74.62-8.1,1.87s-4.19,3.11-5.47,5.54c-1.28,2.46-1.9,5.57-1.9,9.31v28.03h-12.91Z"/>
    </g>
    <g class="cls-1">
      <path class="cls-2" d="m352.06,360.39v-23.15h-8.89v-1.07h18.93v1.07h-8.89v23.15h-1.14Z"/>
      <path class="cls-2" d="m381.62,360.5c-1.76,0-3.36-.38-4.71-1.14s-2.42-1.87-3.22-3.25c-.8-1.38-1.18-2.94-1.18-4.71s.38-3.36,1.11-4.71c.73-1.35,1.73-2.42,3.01-3.22,1.28-.8,2.73-1.18,4.33-1.18s3.05.38,4.33,1.14c1.28.76,2.28,1.8,3.01,3.18.73,1.35,1.07,2.91,1.07,4.64v.31h-16.09v-.93h15.47l-.45.55c0-1.49-.31-2.84-.97-4.05-.62-1.18-1.49-2.11-2.6-2.8-1.11-.69-2.35-1-3.77-1s-2.66.35-3.77,1c-1.11.66-1.97,1.63-2.6,2.8-.62,1.18-.97,2.56-.97,4.08v.21c0,1.56.35,2.98,1.04,4.19.69,1.21,1.63,2.15,2.84,2.84,1.21.69,2.56,1,4.12,1,1.18,0,2.28-.21,3.32-.66,1.04-.45,1.9-1.11,2.6-2.01l.73.76c-.8.97-1.8,1.7-2.98,2.18-1.18.48-2.39.73-3.7.73l.03.03Z"/>
      <path class="cls-2" d="m412.28,360.5c-1.7,0-3.22-.38-4.57-1.14s-2.42-1.83-3.18-3.22c-.76-1.38-1.18-2.94-1.18-4.74s.38-3.36,1.18-4.74c.76-1.38,1.83-2.46,3.18-3.22s2.87-1.14,4.57-1.14c1.35,0,2.63.28,3.77.76,1.14.52,2.11,1.28,2.87,2.32l-.87.73c-.66-.93-1.49-1.63-2.49-2.08-1-.45-2.08-.66-3.29-.66-1.49,0-2.8.35-3.98,1-1.18.66-2.11,1.59-2.8,2.84-.69,1.21-1,2.6-1,4.19s.35,3.01,1,4.19c.69,1.21,1.63,2.15,2.8,2.84,1.18.69,2.49,1,3.98,1,1.18,0,2.28-.24,3.29-.69,1-.45,1.83-1.14,2.49-2.04l.87.69c-.76,1.04-1.73,1.8-2.87,2.32-1.14.52-2.42.76-3.77.76v.03Z"/>
      <path class="cls-2" d="m434.43,360.39v-25.68h1.14v12.77l-.17-.31c.55-1.49,1.49-2.7,2.73-3.56,1.28-.87,2.87-1.32,4.78-1.32,1.49,0,2.77.28,3.84.87,1.07.59,1.9,1.42,2.49,2.53.59,1.11.9,2.49.9,4.15v10.55h-1.14v-10.49c0-2.15-.55-3.77-1.63-4.88-1.07-1.11-2.6-1.66-4.57-1.66-1.49,0-2.8.31-3.88.9-1.07.59-1.9,1.45-2.49,2.56-.59,1.11-.87,2.39-.87,3.88v9.69h-1.14Z"/>
      <path class="cls-2" d="m467.99,360.39v-17.96h1.11v5.05l-.14-.31c.55-1.49,1.49-2.7,2.73-3.56,1.28-.87,2.87-1.32,4.78-1.32,1.49,0,2.77.28,3.84.87,1.07.59,1.9,1.42,2.49,2.53.59,1.11.9,2.49.9,4.15v10.55h-1.14v-10.49c0-2.15-.55-3.77-1.63-4.88-1.07-1.11-2.6-1.66-4.57-1.66-1.49,0-2.8.31-3.88.9-1.07.59-1.9,1.45-2.49,2.56-.59,1.11-.87,2.39-.87,3.88v9.69s-1.14,0-1.14,0Z"/>
      <path class="cls-2" d="m508.34,360.5c-1.7,0-3.18-.38-4.53-1.14-1.32-.76-2.39-1.83-3.15-3.22-.76-1.38-1.18-2.94-1.18-4.74s.38-3.36,1.18-4.71c.76-1.35,1.83-2.42,3.15-3.22,1.32-.8,2.84-1.18,4.53-1.18s3.18.38,4.53,1.14c1.35.76,2.39,1.83,3.15,3.18.76,1.35,1.14,2.94,1.14,4.74s-.38,3.32-1.14,4.71c-.76,1.38-1.8,2.46-3.15,3.25s-2.84,1.14-4.53,1.14v.03Zm0-1.04c1.49,0,2.8-.35,3.95-1,1.18-.69,2.08-1.63,2.73-2.87.66-1.21,1-2.63,1-4.19s-.31-3.01-1-4.19c-.66-1.21-1.56-2.15-2.73-2.84-1.18-.69-2.46-1-3.91-1s-2.8.35-3.95,1c-1.14.66-2.08,1.59-2.77,2.84-.69,1.21-1,2.6-1,4.19s.35,2.98,1,4.19c.69,1.21,1.59,2.18,2.77,2.87,1.14.69,2.46,1,3.91,1Z"/>
      <path class="cls-2" d="m533.19,360.39v-25.68h1.14v25.68h-1.14Z"/>
      <path class="cls-2" d="m559.18,360.5c-1.7,0-3.18-.38-4.53-1.14-1.32-.76-2.39-1.83-3.15-3.22-.76-1.38-1.18-2.94-1.18-4.74s.38-3.36,1.18-4.71c.76-1.35,1.83-2.42,3.15-3.22,1.32-.8,2.84-1.18,4.53-1.18s3.18.38,4.53,1.14c1.35.76,2.39,1.83,3.15,3.18.76,1.35,1.14,2.94,1.14,4.74s-.38,3.32-1.14,4.71c-.76,1.38-1.8,2.46-3.15,3.25-1.35.8-2.84,1.14-4.53,1.14v.03Zm0-1.04c1.49,0,2.8-.35,3.95-1,1.18-.69,2.08-1.63,2.73-2.87.66-1.21,1-2.63,1-4.19s-.31-3.01-1-4.19c-.66-1.21-1.56-2.15-2.73-2.84-1.18-.69-2.46-1-3.91-1s-2.8.35-3.95,1c-1.14.66-2.08,1.59-2.77,2.84-.69,1.21-1,2.6-1,4.19s.35,2.98,1,4.19c.69,1.21,1.59,2.18,2.77,2.87,1.14.69,2.46,1,3.91,1Z"/>
      <path class="cls-2" d="m590.88,359.77c-1.7,0-3.18-.38-4.53-1.14s-2.39-1.76-3.18-3.08c-.8-1.32-1.18-2.84-1.18-4.53s.38-3.22,1.18-4.53c.8-1.32,1.83-2.35,3.18-3.08s2.84-1.11,4.53-1.11,3.15.35,4.43,1.07c1.28.73,2.32,1.73,3.08,3.05.76,1.32,1.14,2.84,1.14,4.6s-.38,3.29-1.14,4.6c-.76,1.32-1.8,2.32-3.08,3.05-1.28.73-2.77,1.11-4.43,1.11Zm0-1.04c1.52,0,2.87-.31,4.05-.97s2.08-1.56,2.73-2.73c.66-1.18,1-2.53,1-4.01s-.35-2.87-1-4.01c-.66-1.14-1.59-2.04-2.73-2.66-1.18-.66-2.49-.97-4.05-.97s-2.8.31-3.98.97c-1.18.66-2.11,1.56-2.8,2.66-.69,1.14-1,2.49-1,4.01s.35,2.84,1,4.01c.69,1.18,1.63,2.08,2.8,2.73s2.49.97,3.98.97Zm.45,8.48c-1.63,0-3.15-.28-4.6-.8s-2.6-1.21-3.46-2.15l.66-.87c.93.87,2.01,1.56,3.29,2.01,1.28.48,2.63.73,4.08.73,2.53,0,4.36-.59,5.57-1.76,1.21-1.18,1.8-3.05,1.8-5.61v-5.43l.35-2.35-.31-2.35v-6.23h1.11v16.23c0,2.94-.69,5.09-2.11,6.47s-3.53,2.08-6.37,2.08v.03Z"/>
      <path class="cls-2" d="m618.46,337.72c-.31,0-.55-.1-.8-.35s-.35-.48-.35-.76c0-.31.1-.59.35-.8s.48-.35.8-.35.59.1.83.35.31.48.31.76-.1.55-.31.8-.48.35-.83.35Zm-.55,22.67v-17.96h1.14v17.96h-1.14Z"/>
      <path class="cls-2" d="m644.17,360.5c-1.76,0-3.36-.38-4.71-1.14-1.35-.76-2.42-1.87-3.22-3.25-.8-1.38-1.18-2.94-1.18-4.71s.38-3.36,1.11-4.71c.73-1.35,1.73-2.42,3.01-3.22,1.28-.8,2.73-1.18,4.33-1.18s3.05.38,4.33,1.14c1.28.76,2.28,1.8,3.01,3.18.73,1.35,1.07,2.91,1.07,4.64v.31h-16.09v-.93h15.47l-.45.55c0-1.49-.31-2.84-.97-4.05-.62-1.18-1.49-2.11-2.6-2.8s-2.35-1-3.77-1-2.66.35-3.77,1c-1.11.66-1.97,1.63-2.6,2.8s-.97,2.56-.97,4.08v.21c0,1.56.35,2.98,1.04,4.19.69,1.21,1.63,2.15,2.84,2.84s2.56,1,4.12,1c1.18,0,2.28-.21,3.32-.66,1.04-.45,1.9-1.11,2.6-2.01l.73.76c-.8.97-1.8,1.7-2.98,2.18-1.18.48-2.39.73-3.7.73l.03.03Z"/>
      <path class="cls-2" d="m672.27,360.5c-1.49,0-2.87-.24-4.15-.69-1.28-.45-2.28-1-2.94-1.73l.55-.9c.66.59,1.59,1.14,2.73,1.59,1.14.45,2.42.69,3.84.69,2.01,0,3.46-.35,4.33-1.04s1.32-1.59,1.32-2.7c0-.8-.21-1.45-.66-1.9s-1-.83-1.73-1.07-1.52-.45-2.39-.59-1.73-.31-2.6-.52-1.66-.45-2.39-.8c-.73-.35-1.28-.8-1.73-1.42-.45-.59-.66-1.38-.66-2.39,0-.87.24-1.63.73-2.35s1.18-1.32,2.15-1.76c.97-.45,2.21-.66,3.7-.66,1.11,0,2.21.17,3.32.48,1.11.31,2.01.8,2.66,1.32l-.59.9c-.73-.59-1.56-1-2.49-1.28s-1.94-.42-2.98-.42c-1.87,0-3.22.35-4.08,1.07s-1.28,1.59-1.28,2.63c0,.83.21,1.49.66,1.97.45.48,1,.87,1.73,1.14.73.24,1.49.45,2.35.62s1.73.35,2.6.52,1.66.45,2.39.76c.73.31,1.28.76,1.73,1.35.45.59.66,1.35.66,2.35,0,.93-.28,1.73-.76,2.46-.52.73-1.28,1.28-2.28,1.7s-2.28.59-3.77.59l.03.07Z"/>
    </g>
  </g>
</svg>
